<?xml version="1.0" standalone="no"?>
<!DOCTYPE svg PUBLIC "-//W3C//DTD SVG 20010904//EN"
 "http://www.w3.org/TR/2001/REC-SVG-20010904/DTD/svg10.dtd">
<svg version="1.0" xmlns="http://www.w3.org/2000/svg"
 width="1839.000000pt" height="806.000000pt" viewBox="0 0 1839.000000 806.000000"
 preserveAspectRatio="xMidYMid meet">

<g transform="translate(0.000000,806.000000) scale(0.100000,-0.100000)"
fill="#000000" stroke="none">
<path d="M3700 5730 l0 -1810 1570 0 1570 0 0 1716 c0 1329 -3 1726 -12 1758
-16 53 -81 118 -134 134 -32 9 -378 12 -1518 12 l-1476 0 0 -1810z m1438 686
c51 -26 79 -52 110 -105 l20 -33 15 28 c9 16 33 46 54 66 71 69 63 68 553 68
l440 0 0 -684 0 -685 -437 -3 c-483 -3 -471 -2 -547 -68 -20 -18 -46 -51 -58
-74 l-20 -40 -20 39 c-28 56 -55 83 -113 113 l-50 27 -437 3 -438 3 0 685 0
684 440 0 441 0 47 -24z m922 -1531 c0 -141 2 -138 -75 -104 l-48 21 -51 -21
c-28 -11 -57 -21 -64 -21 -9 0 -12 33 -12 125 l0 125 125 0 125 0 0 -125z"/>
<path d="M4957 5926 c-68 -25 -97 -66 -97 -136 0 -111 88 -165 209 -130 19 5
37 8 39 5 14 -13 -25 -69 -57 -82 -33 -14 -105 -12 -145 3 -19 7 -41 -65 -25
-81 5 -5 57 -10 118 -10 101 0 110 2 143 27 57 43 73 88 73 198 0 110 -20 162
-74 193 -41 25 -135 31 -184 13z m101 -72 c25 -7 52 -51 52 -83 0 -25 -28 -41
-74 -41 -70 0 -101 69 -50 109 29 23 36 24 72 15z"/>
<path d="M5357 5926 c-74 -27 -104 -80 -94 -164 9 -84 87 -126 192 -105 27 6
52 9 54 7 13 -12 -19 -61 -49 -77 -33 -17 -109 -18 -152 -2 -18 7 -43 -64 -28
-79 15 -15 183 -20 223 -7 46 16 93 69 108 123 6 24 9 79 7 124 -5 93 -25 138
-76 167 -42 25 -136 31 -185 13z m136 -98 c23 -28 22 -74 -2 -88 -50 -26 -131
1 -131 46 0 66 89 94 133 42z"/>
<path d="M4598 5909 c-126 -50 -118 -42 -106 -88 12 -46 14 -47 65 -26 19 8
39 15 44 15 5 0 9 -54 9 -120 l0 -120 -60 0 -60 0 0 -40 0 -40 160 0 160 0 0
39 0 40 -47 3 -48 3 -3 178 -2 177 -33 -1 c-17 -1 -53 -9 -79 -20z"/>
<path d="M5772 5897 l-83 -32 6 -35 c9 -50 18 -55 65 -36 22 9 45 16 51 16 6
0 9 -43 7 -117 l-3 -118 -57 -3 -58 -3 0 -39 0 -40 160 0 160 0 0 40 0 40 -50
0 -50 0 0 180 0 180 -32 0 c-18 -1 -70 -15 -116 -33z"/>
<path d="M7900 4728 c0 -2530 -4 -2361 64 -2501 71 -145 193 -265 351 -343
153 -76 120 -74 1110 -74 990 0 957 -2 1110 74 157 78 279 197 349 341 70 143
66 -25 66 2510 l0 2285 -520 0 -520 0 0 -2125 0 -2125 -490 0 -490 0 0 2125 0
2125 -515 0 -515 0 0 -2292z"/>
<path d="M11830 4415 l0 -2605 1235 0 1235 0 0 480 0 480 -720 0 -720 0 0
2125 0 2125 -515 0 -515 0 0 -2605z"/>
<path d="M15306 7004 c-214 -39 -426 -193 -524 -381 -80 -153 -77 -124 -77
-878 0 -730 0 -735 60 -924 103 -323 377 -603 746 -760 191 -81 376 -118 669
-131 205 -9 280 -22 366 -59 61 -27 118 -84 145 -144 24 -52 24 -53 27 -504
l3 -453 -491 0 -490 0 0 400 0 400 -521 0 -520 0 4 -587 c4 -650 2 -628 71
-768 84 -167 249 -307 441 -373 l80 -27 935 0 935 0 80 28 c121 43 209 99 305
196 96 97 159 203 185 312 22 96 22 1345 0 1475 -22 127 -48 206 -103 320
-175 357 -556 626 -1009 714 -62 12 -188 25 -298 31 -227 12 -305 22 -379 50
-79 29 -136 76 -171 139 l-30 55 -3 458 -3 457 491 0 490 0 0 -395 0 -395 515
0 515 0 0 578 c0 639 0 635 -65 767 -68 138 -188 256 -340 330 -170 84 -100
79 -1085 82 -725 1 -889 -1 -954 -13z"/>
<path d="M3700 2024 c0 -1715 1 -1805 18 -1800 9 3 517 129 1127 280 611 151
1135 284 1165 296 453 179 761 575 820 1050 6 53 10 438 10 1032 l0 948 -1570
0 -1570 0 0 -1806z m1730 1590 c226 -42 416 -149 583 -324 79 -84 171 -213
193 -272 6 -17 -21 -18 -480 -18 l-486 0 0 -159 0 -159 113 -55 c168 -84 275
-185 353 -335 63 -122 79 -206 78 -402 -1 -184 -14 -260 -81 -474 l-37 -118
-53 6 -53 6 0 -175 c0 -208 -8 -237 -70 -263 -35 -15 -40 -21 -40 -50 0 -79
-109 -124 -165 -68 -14 14 -27 42 -31 65 -5 32 -12 43 -30 47 -13 4 -35 20
-49 36 l-25 30 0 264 0 264 -22 4 c-266 48 -437 130 -603 288 -110 104 -174
189 -235 313 -253 510 -81 1106 407 1411 90 57 219 110 325 134 106 24 295 26
408 4z"/>
<path d="M5085 3564 c-379 -67 -692 -342 -808 -709 -37 -119 -51 -230 -44
-369 11 -236 83 -419 243 -617 140 -175 411 -326 634 -354 100 -12 90 20 90
-295 0 -240 2 -281 16 -294 19 -19 60 -21 71 -3 4 6 10 127 13 267 l6 255 2
-322 c2 -277 4 -324 18 -337 18 -19 28 -20 55 -6 18 10 19 26 21 313 l2 302 6
-233 c4 -192 8 -234 20 -242 22 -14 47 -12 64 6 14 13 16 48 16 229 l0 214 38
-7 c86 -14 83 -17 118 95 58 183 69 251 69 438 0 188 -11 246 -67 362 -101
206 -319 354 -601 408 -63 12 -82 13 -88 3 -4 -7 -18 -47 -30 -90 -13 -43 -28
-78 -34 -78 -21 0 -105 62 -141 103 -73 86 -123 231 -124 358 0 70 29 168 69
231 69 109 221 229 386 304 70 32 85 43 85 62 0 25 2 25 -105 6z"/>
<path d="M4945 3325 c-19 -18 -25 -35 -25 -65 0 -58 33 -90 94 -90 37 0 48 5
70 31 35 41 34 83 -3 120 -39 39 -100 41 -136 4z m107 -22 c22 -20 24 -66 2
-87 -36 -37 -104 -7 -104 45 0 50 64 76 102 42z"/>
<path d="M5867 3269 c-26 -17 -63 -50 -83 -72 -36 -42 -89 -135 -81 -143 2 -3
99 -3 216 -2 l211 3 -44 65 c-52 78 -143 180 -160 180 -7 0 -34 -14 -59 -31z"/>
<path d="M17321 1384 c-12 -15 -21 -31 -21 -36 0 -15 30 -21 45 -8 11 9 20 8
43 -6 39 -22 77 -12 97 26 14 26 14 30 -2 39 -12 6 -20 5 -29 -7 -11 -15 -14
-14 -37 1 -38 25 -72 21 -96 -9z"/>
<path d="M7990 1120 c0 -261 -6 -250 138 -250 139 0 132 -13 132 248 l0 212
-45 0 -45 0 -2 -187 -3 -188 -40 0 -40 0 -3 188 -2 187 -45 0 -45 0 0 -210z"/>
<path d="M11610 1100 l0 -230 105 0 105 0 0 40 0 40 -60 0 -60 0 0 190 0 190
-45 0 -45 0 0 -230z"/>
<path d="M14361 1304 c-25 -32 -29 -126 -7 -179 16 -37 60 -65 101 -65 49 0
65 -16 65 -65 l0 -45 -40 0 c-39 0 -40 1 -40 35 l0 35 -50 0 -50 0 0 -55 c0
-84 16 -95 138 -95 127 0 132 5 132 118 0 72 -3 84 -26 111 -16 20 -38 32 -62
36 -85 14 -82 12 -82 60 l0 45 40 0 c39 0 40 -1 40 -35 0 -35 0 -35 45 -35
l45 0 0 63 c0 90 -10 97 -133 97 -91 0 -96 -1 -116 -26z"/>
<path d="M8360 1090 l0 -220 45 0 45 0 1 128 1 127 27 -100 c15 -55 31 -112
35 -127 6 -27 9 -28 66 -28 l60 0 0 220 0 220 -45 0 -45 0 -1 -122 -1 -123
-31 120 -32 120 -62 3 -63 3 0 -221z"/>
<path d="M8740 1090 l0 -220 45 0 45 0 0 220 0 220 -45 0 -45 0 0 -220z"/>
<path d="M8903 1290 c3 -11 22 -110 43 -220 l39 -201 60 3 60 3 36 185 c19
102 38 200 42 218 l7 32 -44 0 c-29 0 -46 -5 -49 -14 -3 -8 -16 -82 -28 -165
-13 -83 -24 -149 -25 -148 -2 1 -10 52 -19 112 -8 61 -20 134 -26 163 l-10 52
-46 0 c-40 0 -45 -2 -40 -20z"/>
<path d="M9250 1090 l0 -220 115 0 115 0 0 40 0 40 -70 0 -70 0 0 50 0 50 60
0 60 0 0 40 0 40 -60 0 -60 0 0 50 0 50 70 0 70 0 0 40 0 40 -115 0 -115 0 0
-220z"/>
<path d="M9560 1090 l0 -220 45 0 45 0 0 76 0 75 38 -3 37 -3 3 -72 3 -73 44
0 45 0 0 73 c-1 42 -6 82 -14 97 -12 21 -12 29 0 52 8 16 14 57 14 102 0 69
-2 76 -26 95 -23 18 -41 21 -130 21 l-104 0 0 -220z m165 80 l0 -55 -37 -3
-38 -3 0 61 0 61 38 -3 37 -3 0 -55z"/>
<path d="M9932 1294 c-20 -14 -22 -24 -22 -97 0 -63 5 -87 18 -103 23 -29 54
-44 91 -44 39 0 61 -23 61 -66 0 -34 0 -34 -45 -34 -45 0 -45 0 -45 35 0 34
-1 35 -40 35 l-40 0 0 -59 c0 -84 10 -91 121 -91 127 0 129 1 129 109 0 78 -2
90 -22 109 -27 24 -70 42 -103 42 -29 0 -48 30 -43 68 3 24 7 27 43 27 38 0
40 -2 43 -32 3 -31 6 -33 43 -33 l39 0 0 59 c0 80 -16 91 -125 91 -57 0 -87
-5 -103 -16z"/>
<path d="M10250 1090 l0 -220 45 0 45 0 0 220 0 220 -45 0 -45 0 0 -220z"/>
<path d="M10440 1090 l0 -220 88 0 c98 0 145 19 162 66 12 29 13 324 2 340
-16 25 -56 34 -151 34 l-101 0 0 -220z m168 3 l-3 -138 -37 -3 -38 -3 0 140 0
141 40 0 41 0 -3 -137z"/>
<path d="M10850 1308 c0 -2 -18 -95 -40 -208 -22 -112 -40 -210 -40 -217 0 -9
15 -13 43 -13 43 0 43 1 53 43 8 40 11 42 44 42 33 0 35 -2 43 -42 l8 -43 46
0 46 0 -7 33 c-4 17 -23 116 -43 220 l-36 187 -58 0 c-33 0 -59 -1 -59 -2z
m73 -210 c5 -54 4 -58 -15 -58 -19 0 -20 4 -14 46 3 26 6 61 7 78 1 47 15 5
22 -66z"/>
<path d="M11120 1090 l0 -220 88 0 c66 0 94 4 112 17 48 33 49 39 50 220 0
211 6 203 -147 203 l-103 0 0 -220z m168 17 c3 -137 -4 -157 -53 -157 l-35 0
0 133 c0 74 3 137 7 141 4 4 23 6 43 4 l35 -3 3 -118z"/>
<path d="M11890 1107 c0 -248 -6 -237 128 -237 137 0 132 -8 132 240 l0 200
-45 0 -45 0 0 -180 0 -180 -40 0 -40 0 0 180 0 180 -45 0 -45 0 0 -203z"/>
<path d="M12210 1271 c0 -40 0 -40 43 -43 l42 -3 3 -177 2 -178 40 0 40 0 2
178 3 177 43 3 c42 3 42 3 42 43 l0 39 -130 0 -130 0 0 -39z"/>
<path d="M12530 1090 l0 -220 115 0 115 0 0 40 0 40 -76 0 -75 0 3 48 3 47 58
3 57 3 0 39 0 40 -61 0 -60 0 3 48 3 47 73 3 72 3 0 39 0 40 -115 0 -115 0 0
-220z"/>
<path d="M12840 1090 l0 -220 40 0 40 0 0 76 0 75 38 -3 37 -3 3 -72 3 -73 44
0 45 0 0 78 c0 51 -5 85 -14 97 -12 17 -12 22 0 39 9 14 14 49 14 108 0 114
-5 118 -147 118 l-103 0 0 -220z m158 83 l-3 -58 -37 -3 -38 -3 0 54 c0 29 3
57 7 60 3 4 22 7 40 7 l34 0 -3 -57z"/>
<path d="M13245 1298 c-2 -7 -21 -98 -40 -203 -20 -104 -39 -198 -41 -207 -5
-15 2 -18 40 -18 42 0 46 2 52 28 13 61 14 62 50 62 32 0 34 -2 40 -41 8 -45
16 -52 66 -47 l35 3 -42 215 -41 215 -57 3 c-40 2 -59 -1 -62 -10z m74 -225
c1 -25 -3 -33 -17 -33 -16 0 -17 6 -11 58 4 31 8 66 9 77 3 25 18 -58 19 -102z"/>
<path d="M13510 1090 l0 -220 45 0 45 0 1 128 1 127 32 -125 32 -125 62 -3 62
-3 0 221 0 220 -45 0 -45 0 -1 -127 -1 -128 -32 125 -32 125 -62 3 -62 3 0
-221z"/>
<path d="M13945 1288 c-3 -13 -23 -112 -44 -221 l-38 -198 46 3 c45 3 46 3 54
46 8 42 9 43 45 40 34 -3 37 -6 45 -45 l8 -43 46 0 c40 0 45 2 40 19 -2 11
-22 110 -43 220 l-38 201 -58 0 c-51 0 -58 -2 -63 -22z m78 -200 c4 -42 2 -48
-14 -48 -21 0 -23 13 -12 100 6 49 7 52 14 25 4 -16 9 -51 12 -77z"/>
<path d="M14760 1308 c0 -2 -18 -95 -40 -208 -22 -112 -40 -210 -40 -217 0 -9
15 -13 43 -13 43 0 43 1 53 43 8 40 11 42 44 42 33 0 35 -2 43 -42 l8 -43 46
0 46 0 -7 33 c-4 17 -23 116 -43 220 l-36 187 -58 0 c-33 0 -59 -1 -59 -2z
m73 -210 c5 -54 4 -58 -15 -58 -19 0 -20 4 -14 46 3 26 6 61 7 78 1 47 15 5
22 -66z"/>
<path d="M15030 1090 l0 -220 100 0 100 0 0 40 0 40 -60 0 -60 0 0 180 0 180
-40 0 -40 0 0 -220z"/>
<path d="M15253 1288 c3 -13 23 -112 43 -221 l38 -198 60 3 60 3 38 195 c20
107 40 205 43 218 5 22 3 23 -42 20 l-48 -3 -24 -162 c-14 -90 -26 -161 -27
-160 -2 2 -12 63 -23 137 -32 206 -25 190 -78 190 -42 0 -45 -2 -40 -22z"/>
<path d="M15625 1298 c-2 -7 -20 -98 -40 -203 -20 -104 -38 -198 -41 -207 -5
-15 1 -18 40 -18 42 0 46 2 52 28 13 61 14 62 49 62 30 0 36 -4 41 -27 14 -64
13 -63 60 -63 41 0 44 2 39 23 -3 12 -22 110 -43 217 l-37 195 -58 3 c-40 2
-59 -1 -62 -10z m74 -220 c1 -27 -3 -38 -14 -38 -17 0 -19 25 -8 110 l7 55 7
-45 c4 -25 8 -62 8 -82z"/>
<path d="M15890 1089 l0 -221 101 4 c99 3 101 3 130 36 l29 32 0 165 c0 212 5
205 -150 205 l-110 0 0 -221z m168 4 l-3 -138 -37 -3 -38 -3 0 140 0 141 40 0
41 0 -3 -137z"/>
<path d="M16260 1290 c-19 -19 -20 -33 -20 -203 0 -226 -5 -217 128 -217 135
0 132 -5 132 219 l0 180 -26 20 c-22 17 -41 21 -110 21 -71 0 -87 -3 -104 -20z
m148 -202 l3 -138 -41 0 -40 0 0 141 0 140 38 -3 37 -3 3 -137z"/>
<path d="M16590 1090 l0 -220 45 0 45 0 0 76 0 75 38 -3 37 -3 3 -72 3 -73 44
0 45 0 0 78 c0 51 -5 85 -14 97 -12 17 -12 22 0 39 9 14 14 49 14 108 0 114
-5 118 -152 118 l-108 0 0 -220z m168 83 l-3 -58 -37 -3 -38 -3 0 54 c0 29 3
57 7 60 3 4 22 7 40 7 l34 0 -3 -57z"/>
<path d="M16950 1090 l0 -220 115 0 115 0 0 40 0 40 -70 0 -70 0 0 50 0 50 60
0 60 0 0 40 0 40 -60 0 -60 0 0 50 0 50 70 0 70 0 0 40 0 40 -115 0 -115 0 0
-220z"/>
<path d="M17260 1090 l0 -220 45 0 45 0 1 123 1 122 31 -122 31 -123 63 0 63
0 0 220 0 220 -45 0 -45 0 -1 -132 -1 -133 -27 105 c-15 58 -31 117 -34 133
-7 26 -10 27 -67 27 l-60 0 0 -220z"/>
<path d="M17697 1303 c-3 -5 -21 -93 -42 -198 -20 -104 -39 -200 -42 -212 -5
-21 -2 -23 40 -23 l46 0 8 43 c8 39 11 42 45 45 36 3 37 2 45 -40 8 -43 9 -43
54 -46 l46 -3 -38 198 c-21 109 -41 208 -44 221 -5 19 -12 22 -60 22 -29 0
-56 -3 -58 -7z m72 -230 c1 -26 -3 -33 -19 -33 -16 0 -19 5 -15 28 2 15 7 50
11 77 l8 50 7 -45 c4 -25 8 -60 8 -77z"/>
</g>
</svg>
